<svg width="26" height="26" viewBox="0 0 26 26" fill="none" xmlns="http://www.w3.org/2000/svg">
<path d="M7.04163 9.20837L5.07409 10.5201C4.60521 10.8327 4.37076 10.9889 4.20104 11.1954C4.05079 11.3783 3.93806 11.5889 3.8693 11.8153C3.79163 12.0711 3.79163 12.3528 3.79163 12.9164V17.1617C3.79163 18.1698 3.79163 18.6738 3.98781 19.0589C4.16039 19.3976 4.43575 19.6729 4.77444 19.8455C5.15948 20.0417 5.66353 20.0417 6.67162 20.0417H19.3283C20.3364 20.0417 20.8404 20.0417 21.2255 19.8455C21.5642 19.6729 21.8395 19.3976 22.0121 19.0589C22.2083 18.6738 22.2083 18.1698 22.2083 17.1617V12.9164C22.2083 12.3528 22.2083 12.0711 22.1306 11.8153C22.0619 11.5889 21.9491 11.3783 21.7989 11.1954C21.6292 10.9889 21.3947 10.8327 20.9258 10.5201L18.9583 9.20837" stroke="#222222" stroke-linecap="round"/>
<path d="M22.2083 13.5416H19.3165C18.6208 13.5416 18.2729 13.5416 18.011 13.7304C17.7491 13.9191 17.6391 14.2492 17.4191 14.9092L17.2475 15.4241C17.0275 16.0841 16.9175 16.4141 16.6556 16.6029C16.3937 16.7916 16.0458 16.7916 15.3501 16.7916H10.6498C9.95409 16.7916 9.60623 16.7916 9.34434 16.6029C9.08245 16.4141 8.97245 16.0841 8.75244 15.4241L8.58081 14.9092C8.3608 14.2492 8.2508 13.9191 7.98891 13.7304C7.72702 13.5416 7.37916 13.5416 6.68344 13.5416H3.79163" stroke="#222222"/>
<path d="M10.2916 5.95838L13 3.25004M13 3.25004L15.7083 5.95838M13 3.25004L13 10.8334" stroke="#222222"/>
</svg>
