<svg width="29" height="31" viewBox="0 0 29 31" fill="none" xmlns="http://www.w3.org/2000/svg">
<path d="M16.2993 8.96969L7.25918 18.6332L7.25917 18.6333L7.25 18.6431L7.24999 18.6431C7.23971 18.6541 7.2295 18.6649 7.21937 18.6758C7.06781 18.8374 6.93366 18.9805 6.83996 19.1558C6.74626 19.3311 6.70178 19.5222 6.65153 19.738C6.64818 19.7525 6.64479 19.767 6.64137 19.7816L5.74473 23.6155C5.74265 23.6244 5.74056 23.6334 5.73845 23.6423C5.70157 23.7998 5.66219 23.9678 5.65057 24.1086C5.63779 24.2636 5.64528 24.5248 5.8581 24.731C6.07092 24.9373 6.33221 24.9366 6.48671 24.9189C6.6271 24.9029 6.79386 24.8583 6.95005 24.8165C6.95895 24.8141 6.96782 24.8117 6.97664 24.8093L10.451 23.8809C10.4665 23.8767 10.482 23.8726 10.4973 23.8685C10.7264 23.8076 10.9292 23.7536 11.1114 23.6444C11.2935 23.5353 11.4367 23.3818 11.5985 23.2086C11.6093 23.197 11.6202 23.1853 11.6312 23.1735L11.6312 23.1735L11.6369 23.1674L11.6369 23.1674L20.8369 13.3329L20.8585 13.3098C21.143 13.0057 21.3891 12.7427 21.5598 12.5047C21.7431 12.249 21.8806 11.9676 21.8806 11.625C21.8806 11.2824 21.7431 11.001 21.5598 10.7453C21.3891 10.5073 21.143 10.2442 20.8585 9.94014L20.8369 9.91711L19.9506 8.96969L19.9272 8.94468C19.6051 8.60023 19.3286 8.30469 19.0764 8.09995C18.8068 7.88116 18.5035 7.71379 18.125 7.71379C17.7464 7.71379 17.4431 7.88116 17.1735 8.09995C16.9213 8.30469 16.6449 8.60024 16.3227 8.94469L16.2993 8.96969Z" stroke="#222222"/>
<path d="M15.1041 9.68752L18.7291 7.10419L22.3541 10.9792L19.9375 14.8542L15.1041 9.68752Z" fill="#222222"/>
</svg>
