<svg width="41" height="40" viewBox="0 0 41 40" fill="none" xmlns="http://www.w3.org/2000/svg">
<path d="M24.75 13.3333C24.75 15.8186 22.7353 17.8333 20.25 17.8333C17.7647 17.8333 15.75 15.8186 15.75 13.3333C15.75 10.8481 17.7647 8.83334 20.25 8.83334C22.7353 8.83334 24.75 10.8481 24.75 13.3333Z" stroke="#53851E" stroke-linecap="round"/>
<path d="M22.9079 10.6667C23.2705 10.0386 23.8112 9.53222 24.4616 9.21148C25.112 8.89073 25.8429 8.77005 26.5619 8.86471C27.2809 8.95937 27.9557 9.26511 28.5009 9.74326C29.0462 10.2214 29.4374 10.8505 29.6251 11.551C29.8128 12.2515 29.7885 12.9919 29.5554 13.6786C29.3223 14.3653 28.8908 14.9675 28.3155 15.409C27.7401 15.8504 27.0468 16.1114 26.3231 16.1588C25.5995 16.2063 24.878 16.038 24.25 15.6754" stroke="#53851E"/>
<path d="M17.5921 10.6667C17.2295 10.0386 16.6888 9.53222 16.0384 9.21148C15.388 8.89073 14.6571 8.77005 13.9381 8.86471C13.2191 8.95937 12.5443 9.26511 11.9991 9.74326C11.4538 10.2214 11.0626 10.8505 10.8749 11.551C10.6872 12.2515 10.7115 12.9919 10.9446 13.6786C11.1777 14.3653 11.6092 14.9675 12.1845 15.409C12.7599 15.8504 13.4532 16.1114 14.1769 16.1588C14.9005 16.2063 15.622 16.038 16.25 15.6754" stroke="#53851E"/>
<path d="M20.25 20.8333C27.6277 20.8333 29.0675 27.311 29.3485 29.8394C29.4095 30.3883 28.9689 30.8333 28.4167 30.8333H12.0833C11.531 30.8333 11.0905 30.3883 11.1515 29.8394C11.4325 27.311 12.8723 20.8333 20.25 20.8333Z" stroke="#53851E" stroke-linecap="round"/>
<path d="M32.5735 26.4121L32.0834 26.5113L32.5735 26.4121ZM22.0618 20.9765L21.6926 20.6394L21.0722 21.3189L21.9799 21.4697L22.0618 20.9765ZM28.8855 27.5L28.4052 27.6389L28.5097 28H28.8855V27.5ZM26.0833 19.6667C28.1185 19.6667 29.489 20.778 30.431 22.2165C31.3813 23.6677 31.8599 25.4068 32.0834 26.5113L33.0636 26.3129C32.8301 25.1594 32.3199 23.2757 31.2676 21.6687C30.207 20.049 28.561 18.6667 26.0833 18.6667V19.6667ZM22.4311 21.3136C23.3168 20.3435 24.4918 19.6667 26.0833 19.6667V18.6667C24.1639 18.6667 22.7336 19.4992 21.6926 20.6394L22.4311 21.3136ZM21.9799 21.4697C25.9972 22.1373 27.6854 25.151 28.4052 27.6389L29.3658 27.361C28.597 24.7035 26.7105 21.2422 22.1438 20.4833L21.9799 21.4697ZM31.645 27H28.8855V28H31.645V27ZM32.0834 26.5113C32.1322 26.7524 31.9509 27 31.645 27V28C32.5223 28 33.2495 27.2315 33.0636 26.3129L32.0834 26.5113Z" fill="#53851E"/>
<path d="M18.4382 20.9765L18.5201 21.4697L19.4278 21.3189L18.8074 20.6394L18.4382 20.9765ZM7.92647 26.4121L8.41653 26.5113L7.92647 26.4121ZM11.6145 27.5V28H11.9903L12.0948 27.6389L11.6145 27.5ZM14.4167 19.6667C16.0082 19.6667 17.1832 20.3435 18.0689 21.3136L18.8074 20.6394C17.7664 19.4992 16.3361 18.6667 14.4167 18.6667V19.6667ZM8.41653 26.5113C8.64011 25.4068 9.1187 23.6677 10.069 22.2165C11.011 20.778 12.3815 19.6667 14.4167 19.6667V18.6667C11.9391 18.6667 10.293 20.049 9.2324 21.6687C8.18005 23.2757 7.66992 25.1593 7.43641 26.3129L8.41653 26.5113ZM8.85499 27C8.54907 27 8.36772 26.7524 8.41653 26.5113L7.43641 26.3129C7.25047 27.2315 7.97767 28 8.85499 28V27ZM11.6145 27H8.85499V28H11.6145V27ZM12.0948 27.6389C12.8146 25.151 14.5028 22.1373 18.5201 21.4697L18.3562 20.4833C13.7895 21.2422 11.903 24.7035 11.1342 27.361L12.0948 27.6389Z" fill="#53851E"/>
</svg>
