<svg width="26" height="26" viewBox="0 0 26 26" fill="none" xmlns="http://www.w3.org/2000/svg">
<path d="M10.2916 15.7084L10.2916 12.4584" stroke="#222222" stroke-linecap="round"/>
<path d="M15.7084 15.7084L15.7084 12.4584" stroke="#222222" stroke-linecap="round"/>
<path d="M3.25 7.04163H22.75V7.04163C21.0661 7.04163 20.2242 7.04163 19.6644 7.51657C19.5812 7.58718 19.5039 7.66449 19.4333 7.74771C18.9583 8.3075 18.9583 9.14943 18.9583 10.8333V17.125C18.9583 19.0106 18.9583 19.9534 18.3725 20.5392C17.7868 21.125 16.844 21.125 14.9583 21.125H11.0417C9.15605 21.125 8.21324 21.125 7.62745 20.5392C7.04167 19.9534 7.04167 19.0106 7.04167 17.125V10.8333C7.04167 9.14943 7.04167 8.3075 6.56672 7.74771C6.49611 7.66449 6.4188 7.58718 6.33558 7.51657C5.77579 7.04163 4.93386 7.04163 3.25 7.04163V7.04163Z" stroke="#222222" stroke-linecap="round"/>
<path d="M10.2917 3.79197C10.2917 3.79197 10.8334 2.70837 13 2.70837C15.1667 2.70837 15.7084 3.79171 15.7084 3.79171" stroke="#222222" stroke-linecap="round"/>
</svg>
